# xmcd CD database file
#
# Track frame offsets:
#	150
#	18168
#	38820
#	61033
#	80720
#	103068
#	124165
#	145870
#
# Disc length: 2205 seconds
#
# Revision: 0
# Processed by: cddbd v1.5.2PL0 Copyright (c) Steve Scherf et al.
# Submitted via: CDex 1.51
#
DISCID=63089b08
DTITLE=Alto Voltaje - Connectate
DYEAR=1996
DGENRE=Merengue
TTITLE0=Tuqui Tuqui
TTITLE1=Mi Propia Vida
TTITLE2=La Alegria
TTITLE3=Que Le Pasa A Mi Mujer
TTITLE4=Mi Primer Amor
TTITLE5=Que Tienes Tus Ojos
TTITLE6=Llorando Ante La Tumba
TTITLE7=La Pension
EXTD=YEAR: 1996
EXTT0=
EXTT1=
EXTT2=
EXTT3=
EXTT4=
EXTT5=
EXTT6=
EXTT7=
PLAYORDER=
